<svg width="32" height="32" viewBox="0 0 32 32" fill="none" xmlns="http://www.w3.org/2000/svg">
<circle cx="16.0007" cy="16.0036" r="2.17063" stroke="#F1EAF2" stroke-width="1.5"/>
<path d="M20.9637 15.9955C20.9637 18.7372 18.7411 20.9598 15.9994 20.9598C13.2577 20.9598 11.0352 18.7372 11.0352 15.9955C11.0352 13.2538 13.2577 11.0312 15.9994 11.0312C18.7411 11.0312 20.9637 13.2538 20.9637 15.9955Z" stroke="#F1EAF2" stroke-width="1.5"/>
<circle cx="16.0003" cy="15.9973" r="8.39286" stroke="#F1EAF2" stroke-width="1.5"/>
<path d="M28.0706 15.9982C28.0706 22.6651 22.666 28.0696 15.9992 28.0696C9.3323 28.0696 3.92773 22.6651 3.92773 15.9982C3.92773 9.33132 9.3323 3.92676 15.9992 3.92676C22.666 3.92676 28.0706 9.33132 28.0706 15.9982Z" stroke="#F1EAF2"/>
<circle cx="16" cy="16" r="15.5" stroke="#F1EAF2"/>
</svg>
